{
	"asset":{
		"generator":"Khronos glTF Blender I/O v4.0.44",
		"version":"2.0"
	},
	"extensionsUsed":[
		"KHR_materials_specular",
		"KHR_materials_ior"
	],
	"scene":0,
	"scenes":[
		{
			"name":"Scene",
			"nodes":[
				3
			]
		}
	],
	"nodes":[
		{
			"name":"forend",
			"translation":[
				0.07152285426855087,
				0.024949731305241585,
				0.5626854300498962
			]
		},
		{
			"name":"head",
			"translation":[
				0.053396858274936676,
				0.27060726284980774,
				0.16645734012126923
			]
		},
		{
			"name":"hilt",
			"translation":[
				-0.045532867312431335,
				-0.04208136722445488,
				0.23977133631706238
			]
		},
		{
			"children":[
				0,
				1,
				2
			],
			"mesh":0,
			"name":"body"
		}
	],
	"materials":[
		{
			"doubleSided":true,
			"extensions":{
				"KHR_materials_specular":{
					"specularFactor":0
				},
				"KHR_materials_ior":{
					"ior":1.4500000476837158
				}
			},
			"name":"Material #143",
			"pbrMetallicRoughness":{
				"baseColorTexture":{
					"index":0
				},
				"metallicFactor":0,
				"roughnessFactor":0.858578622341156
			}
		},
		{
			"doubleSided":true,
			"extensions":{
				"KHR_materials_specular":{
					"specularFactor":0
				},
				"KHR_materials_ior":{
					"ior":1.4500000476837158
				}
			},
			"name":"Material #141",
			"pbrMetallicRoughness":{
				"baseColorTexture":{
					"index":1
				},
				"metallicFactor":0,
				"roughnessFactor":0.858578622341156
			}
		},
		{
			"doubleSided":true,
			"extensions":{
				"KHR_materials_specular":{
					"specularFactor":0
				},
				"KHR_materials_ior":{
					"ior":1.4500000476837158
				}
			},
			"name":"Material #150",
			"pbrMetallicRoughness":{
				"baseColorTexture":{
					"index":2
				},
				"metallicFactor":0,
				"roughnessFactor":0.858578622341156
			}
		}
	],
	"meshes":[
		{
			"name":"body",
			"primitives":[
				{
					"attributes":{
						"POSITION":0,
						"NORMAL":1,
						"TEXCOORD_0":2
					},
					"indices":3,
					"material":0
				},
				{
					"attributes":{
						"POSITION":4,
						"NORMAL":5,
						"TEXCOORD_0":6
					},
					"indices":7,
					"material":1
				},
				{
					"attributes":{
						"POSITION":8,
						"NORMAL":9,
						"TEXCOORD_0":10
					},
					"indices":11,
					"material":2
				}
			]
		}
	],
	"textures":[
		{
			"sampler":0,
			"source":0
		},
		{
			"sampler":0,
			"source":1
		},
		{
			"sampler":0,
			"source":2
		}
	],
	"images":[
		{
			"mimeType":"image/jpeg",
			"name":"akms2",
			"uri":"akms2.jpg"
		},
		{
			"mimeType":"image/jpeg",
			"name":"akms1",
			"uri":"akms1.jpg"
		},
		{
			"mimeType":"image/jpeg",
			"name":"akms",
			"uri":"akms.jpg"
		}
	],
	"accessors":[
		{
			"bufferView":0,
			"componentType":5126,
			"count":2648,
			"max":[
				0.03188033401966095,
				0.034699685871601105,
				0.28568950295448303
			],
			"min":[
				-0.03063366189599037,
				-0.09429031610488892,
				-0.012981504201889038
			],
			"type":"VEC3"
		},
		{
			"bufferView":1,
			"componentType":5126,
			"count":2648,
			"type":"VEC3"
		},
		{
			"bufferView":2,
			"componentType":5126,
			"count":2648,
			"type":"VEC2"
		},
		{
			"bufferView":3,
			"componentType":5123,
			"count":9336,
			"type":"SCALAR"
		},
		{
			"bufferView":4,
			"componentType":5126,
			"count":2209,
			"max":[
				0.023667458444833755,
				0.07647669315338135,
				0.6576794981956482
			],
			"min":[
				-0.022113541141152382,
				-0.17015144228935242,
				0.3818264901638031
			],
			"type":"VEC3"
		},
		{
			"bufferView":5,
			"componentType":5126,
			"count":2209,
			"type":"VEC3"
		},
		{
			"bufferView":6,
			"componentType":5126,
			"count":2209,
			"type":"VEC2"
		},
		{
			"bufferView":7,
			"componentType":5123,
			"count":9162,
			"type":"SCALAR"
		},
		{
			"bufferView":8,
			"componentType":5126,
			"count":5252,
			"max":[
				0.027384473010897636,
				0.08933870494365692,
				0.9003264904022217
			],
			"min":[
				-0.046647556126117706,
				-0.10966132581233978,
				0.2406185120344162
			],
			"type":"VEC3"
		},
		{
			"bufferView":9,
			"componentType":5126,
			"count":5252,
			"type":"VEC3"
		},
		{
			"bufferView":10,
			"componentType":5126,
			"count":5252,
			"type":"VEC2"
		},
		{
			"bufferView":11,
			"componentType":5123,
			"count":17379,
			"type":"SCALAR"
		}
	],
	"bufferViews":[
		{
			"buffer":0,
			"byteLength":31776,
			"byteOffset":0,
			"target":34962
		},
		{
			"buffer":0,
			"byteLength":31776,
			"byteOffset":31776,
			"target":34962
		},
		{
			"buffer":0,
			"byteLength":21184,
			"byteOffset":63552,
			"target":34962
		},
		{
			"buffer":0,
			"byteLength":18672,
			"byteOffset":84736,
			"target":34963
		},
		{
			"buffer":0,
			"byteLength":26508,
			"byteOffset":103408,
			"target":34962
		},
		{
			"buffer":0,
			"byteLength":26508,
			"byteOffset":129916,
			"target":34962
		},
		{
			"buffer":0,
			"byteLength":17672,
			"byteOffset":156424,
			"target":34962
		},
		{
			"buffer":0,
			"byteLength":18324,
			"byteOffset":174096,
			"target":34963
		},
		{
			"buffer":0,
			"byteLength":63024,
			"byteOffset":192420,
			"target":34962
		},
		{
			"buffer":0,
			"byteLength":63024,
			"byteOffset":255444,
			"target":34962
		},
		{
			"buffer":0,
			"byteLength":42016,
			"byteOffset":318468,
			"target":34962
		},
		{
			"buffer":0,
			"byteLength":34758,
			"byteOffset":360484,
			"target":34963
		}
	],
	"samplers":[
		{
			"magFilter":9729,
			"minFilter":9987
		}
	],
	"buffers":[
		{
			"byteLength":395244,
			"uri":"akms.bin"
		}
	]
}
