{
	"asset":{
		"generator":"Khronos glTF Blender I/O v4.0.44",
		"version":"2.0"
	},
	"extensionsUsed":[
		"KHR_materials_specular",
		"KHR_materials_ior"
	],
	"scene":0,
	"scenes":[
		{
			"name":"Scene",
			"nodes":[
				8
			]
		}
	],
	"nodes":[
		{
			"mesh":0,
			"name":"Front_wheel_L_1",
			"translation":[
				9.094635009765625,
				4.2296953201293945,
				16.467334747314453
			]
		},
		{
			"mesh":1,
			"name":"Front_wheel_L_2",
			"translation":[
				9.057090759277344,
				4.229691982269287,
				6.237585067749023
			]
		},
		{
			"mesh":2,
			"name":"Front_wheel_R_1",
			"translation":[
				-8.84496021270752,
				4.2424445152282715,
				16.413211822509766
			]
		},
		{
			"mesh":3,
			"name":"Front_wheel_R_2",
			"translation":[
				-8.858506202697754,
				4.232959270477295,
				6.26005744934082
			]
		},
		{
			"mesh":4,
			"name":"Rear_wheels_1",
			"translation":[
				0.15180835127830505,
				4.227799415588379,
				-6.108627796173096
			]
		},
		{
			"mesh":5,
			"name":"Rear_wheels_2",
			"translation":[
				0.10290613025426865,
				4.241122722625732,
				-16.033592224121094
			]
		},
		{
			"mesh":6,
			"name":"btr_gun",
			"translation":[
				-2.35835337638855,
				2.3007755279541016,
				-2.186734676361084
			]
		},
		{
			"children":[
				6
			],
			"mesh":7,
			"name":"tower",
			"translation":[
				0.27489930391311646,
				15.988356590270996,
				6.645013809204102
			]
		},
		{
			"children":[
				0,
				1,
				2,
				3,
				4,
				5,
				7
			],
			"mesh":8,
			"name":"body",
			"scale":[
				0.1379219889640808,
				0.13792234659194946,
				0.13792234659194946
			]
		}
	],
	"materials":[
		{
			"doubleSided":true,
			"extensions":{
				"KHR_materials_specular":{
					"specularFactor":0
				},
				"KHR_materials_ior":{
					"ior":1.4500000476837158
				}
			},
			"name":"tex_0282_0",
			"normalTexture":{
				"index":0,
				"scale":3
			},
			"pbrMetallicRoughness":{
				"baseColorTexture":{
					"index":1
				},
				"metallicFactor":0,
				"roughnessFactor":0.8945907354354858
			}
		},
		{
			"extensions":{
				"KHR_materials_specular":{
					"specularFactor":0
				},
				"KHR_materials_ior":{
					"ior":1.4500000476837158
				}
			},
			"name":"tex_0554_0",
			"normalTexture":{
				"index":2
			},
			"pbrMetallicRoughness":{
				"baseColorTexture":{
					"index":3
				},
				"metallicFactor":0,
				"roughnessFactor":0.8945907354354858
			}
		},
		{
			"doubleSided":true,
			"extensions":{
				"KHR_materials_specular":{
					"specularFactor":0
				},
				"KHR_materials_ior":{
					"ior":1.4500000476837158
				}
			},
			"name":"tex_15513_0",
			"normalTexture":{
				"index":4,
				"scale":10
			},
			"pbrMetallicRoughness":{
				"baseColorTexture":{
					"index":5
				},
				"metallicFactor":0,
				"roughnessFactor":0.8945907354354858
			}
		},
		{
			"doubleSided":true,
			"extensions":{
				"KHR_materials_specular":{
					"specularFactor":0
				},
				"KHR_materials_ior":{
					"ior":1.4500000476837158
				}
			},
			"name":"tex_0250_0",
			"normalTexture":{
				"index":6,
				"scale":0
			},
			"pbrMetallicRoughness":{
				"baseColorTexture":{
					"index":7
				},
				"metallicFactor":0,
				"roughnessFactor":0.8945907354354858
			}
		},
		{
			"extensions":{
				"KHR_materials_specular":{
					"specularFactor":0
				},
				"KHR_materials_ior":{
					"ior":1.4500000476837158
				}
			},
			"name":"tex_0266_0",
			"normalTexture":{
				"index":8,
				"scale":0
			},
			"pbrMetallicRoughness":{
				"baseColorTexture":{
					"index":9
				},
				"metallicFactor":0,
				"roughnessFactor":0.8945907354354858
			}
		}
	],
	"meshes":[
		{
			"name":"BTR82A.022",
			"primitives":[
				{
					"attributes":{
						"POSITION":0,
						"NORMAL":1,
						"TEXCOORD_0":2
					},
					"indices":3,
					"material":0
				},
				{
					"attributes":{
						"POSITION":4,
						"NORMAL":5,
						"TEXCOORD_0":6
					},
					"indices":7,
					"material":1
				}
			]
		},
		{
			"name":"BTR82A.023",
			"primitives":[
				{
					"attributes":{
						"POSITION":8,
						"NORMAL":9,
						"TEXCOORD_0":10
					},
					"indices":3,
					"material":0
				},
				{
					"attributes":{
						"POSITION":11,
						"NORMAL":12,
						"TEXCOORD_0":13
					},
					"indices":7,
					"material":1
				}
			]
		},
		{
			"name":"BTR82A.019",
			"primitives":[
				{
					"attributes":{
						"POSITION":14,
						"NORMAL":15,
						"TEXCOORD_0":16
					},
					"indices":17,
					"material":0
				},
				{
					"attributes":{
						"POSITION":18,
						"NORMAL":19,
						"TEXCOORD_0":20
					},
					"indices":21,
					"material":1
				}
			]
		},
		{
			"name":"BTR82A.020",
			"primitives":[
				{
					"attributes":{
						"POSITION":22,
						"NORMAL":23,
						"TEXCOORD_0":24
					},
					"indices":25,
					"material":0
				},
				{
					"attributes":{
						"POSITION":26,
						"NORMAL":27,
						"TEXCOORD_0":28
					},
					"indices":21,
					"material":1
				}
			]
		},
		{
			"name":"BTR82A.024",
			"primitives":[
				{
					"attributes":{
						"POSITION":29,
						"NORMAL":30,
						"TEXCOORD_0":31
					},
					"indices":32,
					"material":0
				},
				{
					"attributes":{
						"POSITION":33,
						"NORMAL":34,
						"TEXCOORD_0":35
					},
					"indices":36,
					"material":1
				}
			]
		},
		{
			"name":"BTR82A.021",
			"primitives":[
				{
					"attributes":{
						"POSITION":37,
						"NORMAL":38,
						"TEXCOORD_0":39
					},
					"indices":40,
					"material":0
				},
				{
					"attributes":{
						"POSITION":41,
						"NORMAL":42,
						"TEXCOORD_0":43
					},
					"indices":44,
					"material":1
				}
			]
		},
		{
			"name":"BTR82A.032",
			"primitives":[
				{
					"attributes":{
						"POSITION":45,
						"NORMAL":46,
						"TEXCOORD_0":47
					},
					"indices":48,
					"material":1
				}
			]
		},
		{
			"name":"BTR82A.031",
			"primitives":[
				{
					"attributes":{
						"POSITION":49,
						"NORMAL":50,
						"TEXCOORD_0":51
					},
					"indices":52,
					"material":1
				}
			]
		},
		{
			"name":"BTR82A.025",
			"primitives":[
				{
					"attributes":{
						"POSITION":53,
						"NORMAL":54,
						"TEXCOORD_0":55
					},
					"indices":56,
					"material":1
				},
				{
					"attributes":{
						"POSITION":57,
						"NORMAL":58,
						"TEXCOORD_0":59
					},
					"indices":60,
					"material":2
				},
				{
					"attributes":{
						"POSITION":61,
						"NORMAL":62,
						"TEXCOORD_0":63
					},
					"indices":64,
					"material":3
				},
				{
					"attributes":{
						"POSITION":65,
						"NORMAL":66,
						"TEXCOORD_0":67
					},
					"indices":68,
					"material":4
				}
			]
		}
	],
	"textures":[
		{
			"sampler":0,
			"source":0
		},
		{
			"sampler":0,
			"source":1
		},
		{
			"sampler":0,
			"source":2
		},
		{
			"sampler":0,
			"source":3
		},
		{
			"sampler":0,
			"source":4
		},
		{
			"sampler":0,
			"source":5
		},
		{
			"sampler":0,
			"source":6
		},
		{
			"sampler":0,
			"source":7
		},
		{
			"sampler":0,
			"source":8
		},
		{
			"sampler":0,
			"source":9
		}
	],
	"images":[
		{
			"mimeType":"image/jpeg",
			"name":"Tex_0282_n",
			"uri":"texture/Tex_0282_n.jpg"
		},
		{
			"mimeType":"image/jpeg",
			"name":"Tex_0282_0",
			"uri":"texture/Tex_0282_0.jpg"
		},
		{
			"mimeType":"image/jpeg",
			"name":"Tex_0554_n",
			"uri":"texture/Tex_0554_n.jpg"
		},
		{
			"mimeType":"image/jpeg",
			"name":"Tex_0554_0",
			"uri":"texture/Tex_0554_0.jpg"
		},
		{
			"mimeType":"image/jpeg",
			"name":"Tex_15513_n",
			"uri":"texture/Tex_15513_n.jpg"
		},
		{
			"mimeType":"image/jpeg",
			"name":"Tex_15513_0",
			"uri":"texture/Tex_15513_0.jpg"
		},
		{
			"mimeType":"image/jpeg",
			"name":"Tex_0250_n",
			"uri":"texture/Tex_0250_n.jpg"
		},
		{
			"mimeType":"image/jpeg",
			"name":"Tex_0250_0",
			"uri":"texture/Tex_0250_0.jpg"
		},
		{
			"mimeType":"image/jpeg",
			"name":"Tex_0266_n",
			"uri":"texture/Tex_0266_n.jpg"
		},
		{
			"mimeType":"image/jpeg",
			"name":"Tex_0266_0",
			"uri":"texture/Tex_0266_0.jpg"
		}
	],
	"accessors":[
		{
			"bufferView":0,
			"componentType":5126,
			"count":2235,
			"max":[
				1.4659850597381592,
				4.323752403259277,
				4.3249831199646
			],
			"min":[
				-1.4659850597381592,
				-4.319973945617676,
				-4.331343650817871
			],
			"type":"VEC3"
		},
		{
			"bufferView":1,
			"componentType":5126,
			"count":2235,
			"type":"VEC3"
		},
		{
			"bufferView":2,
			"componentType":5126,
			"count":2235,
			"type":"VEC2"
		},
		{
			"bufferView":3,
			"componentType":5123,
			"count":6426,
			"type":"SCALAR"
		},
		{
			"bufferView":4,
			"componentType":5126,
			"count":272,
			"max":[
				1.1168051958084106,
				2.1166720390319824,
				2.0865488052368164
			],
			"min":[
				-1.2508047819137573,
				-2.078906297683716,
				-2.108999013900757
			],
			"type":"VEC3"
		},
		{
			"bufferView":5,
			"componentType":5126,
			"count":272,
			"type":"VEC3"
		},
		{
			"bufferView":6,
			"componentType":5126,
			"count":272,
			"type":"VEC2"
		},
		{
			"bufferView":7,
			"componentType":5123,
			"count":810,
			"type":"SCALAR"
		},
		{
			"bufferView":8,
			"componentType":5126,
			"count":2235,
			"max":[
				1.4659690856933594,
				4.322649955749512,
				4.324243068695068
			],
			"min":[
				-1.4659911394119263,
				-4.328824520111084,
				-4.327535629272461
			],
			"type":"VEC3"
		},
		{
			"bufferView":9,
			"componentType":5126,
			"count":2235,
			"type":"VEC3"
		},
		{
			"bufferView":10,
			"componentType":5126,
			"count":2235,
			"type":"VEC2"
		},
		{
			"bufferView":11,
			"componentType":5126,
			"count":272,
			"max":[
				1.1543388366699219,
				2.1136438846588135,
				2.096632480621338
			],
			"min":[
				-1.2132712602615356,
				-2.0755982398986816,
				-2.0925703048706055
			],
			"type":"VEC3"
		},
		{
			"bufferView":12,
			"componentType":5126,
			"count":272,
			"type":"VEC3"
		},
		{
			"bufferView":13,
			"componentType":5126,
			"count":272,
			"type":"VEC2"
		},
		{
			"bufferView":14,
			"componentType":5126,
			"count":2235,
			"max":[
				1.4659996032714844,
				4.323750972747803,
				4.3249969482421875
			],
			"min":[
				-1.4659606218338013,
				-4.319975852966309,
				-4.3313398361206055
			],
			"type":"VEC3"
		},
		{
			"bufferView":15,
			"componentType":5126,
			"count":2235,
			"type":"VEC3"
		},
		{
			"bufferView":16,
			"componentType":5126,
			"count":2235,
			"type":"VEC2"
		},
		{
			"bufferView":17,
			"componentType":5123,
			"count":6426,
			"type":"SCALAR"
		},
		{
			"bufferView":18,
			"componentType":5126,
			"count":272,
			"max":[
				1.1441444158554077,
				2.1039230823516846,
				2.140683889389038
			],
			"min":[
				-1.2234656810760498,
				-2.0916552543640137,
				-2.054865598678589
			],
			"type":"VEC3"
		},
		{
			"bufferView":19,
			"componentType":5126,
			"count":272,
			"type":"VEC3"
		},
		{
			"bufferView":20,
			"componentType":5126,
			"count":272,
			"type":"VEC2"
		},
		{
			"bufferView":21,
			"componentType":5123,
			"count":810,
			"type":"SCALAR"
		},
		{
			"bufferView":22,
			"componentType":5126,
			"count":2235,
			"max":[
				1.465983510017395,
				4.323751449584961,
				4.324971675872803
			],
			"min":[
				-1.4659758806228638,
				-4.319985389709473,
				-4.33136510848999
			],
			"type":"VEC3"
		},
		{
			"bufferView":23,
			"componentType":5126,
			"count":2235,
			"type":"VEC3"
		},
		{
			"bufferView":24,
			"componentType":5126,
			"count":2235,
			"type":"VEC2"
		},
		{
			"bufferView":25,
			"componentType":5123,
			"count":6426,
			"type":"SCALAR"
		},
		{
			"bufferView":26,
			"componentType":5126,
			"count":272,
			"max":[
				1.1576789617538452,
				2.113405227661133,
				2.0783801078796387
			],
			"min":[
				-1.2099311351776123,
				-2.0821731090545654,
				-2.1171586513519287
			],
			"type":"VEC3"
		},
		{
			"bufferView":27,
			"componentType":5126,
			"count":272,
			"type":"VEC3"
		},
		{
			"bufferView":28,
			"componentType":5126,
			"count":272,
			"type":"VEC2"
		},
		{
			"bufferView":29,
			"componentType":5126,
			"count":4454,
			"max":[
				10.390857696533203,
				4.341975212097168,
				4.346093654632568
			],
			"min":[
				-10.463791847229004,
				-4.31160831451416,
				-4.344620227813721
			],
			"type":"VEC3"
		},
		{
			"bufferView":30,
			"componentType":5126,
			"count":4454,
			"type":"VEC3"
		},
		{
			"bufferView":31,
			"componentType":5126,
			"count":4454,
			"type":"VEC2"
		},
		{
			"bufferView":32,
			"componentType":5123,
			"count":12804,
			"type":"SCALAR"
		},
		{
			"bufferView":33,
			"componentType":5126,
			"count":544,
			"max":[
				10.05961799621582,
				2.1185615062713623,
				2.1002702713012695
			],
			"min":[
				-10.220245361328125,
				-2.077016830444336,
				-2.0953009128570557
			],
			"type":"VEC3"
		},
		{
			"bufferView":34,
			"componentType":5126,
			"count":544,
			"type":"VEC3"
		},
		{
			"bufferView":35,
			"componentType":5126,
			"count":544,
			"type":"VEC2"
		},
		{
			"bufferView":36,
			"componentType":5123,
			"count":1620,
			"type":"SCALAR"
		},
		{
			"bufferView":37,
			"componentType":5126,
			"count":4470,
			"max":[
				10.423422813415527,
				4.331916332244873,
				4.329448223114014
			],
			"min":[
				-10.4234619140625,
				-4.328151226043701,
				-4.335838794708252
			],
			"type":"VEC3"
		},
		{
			"bufferView":38,
			"componentType":5126,
			"count":4470,
			"type":"VEC3"
		},
		{
			"bufferView":39,
			"componentType":5126,
			"count":4470,
			"type":"VEC2"
		},
		{
			"bufferView":40,
			"componentType":5123,
			"count":12852,
			"type":"SCALAR"
		},
		{
			"bufferView":41,
			"componentType":5126,
			"count":544,
			"max":[
				10.108508110046387,
				2.105236768722534,
				2.100492000579834
			],
			"min":[
				-10.171354293823242,
				-2.090341567993164,
				-2.0950706005096436
			],
			"type":"VEC3"
		},
		{
			"bufferView":42,
			"componentType":5126,
			"count":544,
			"type":"VEC3"
		},
		{
			"bufferView":43,
			"componentType":5126,
			"count":544,
			"type":"VEC2"
		},
		{
			"bufferView":44,
			"componentType":5123,
			"count":1620,
			"type":"SCALAR"
		},
		{
			"bufferView":45,
			"componentType":5126,
			"count":1374,
			"max":[
				4.627493381500244,
				1.637060523033142,
				20.122873306274414
			],
			"min":[
				0.004365121945738792,
				-1.5386396646499634,
				-1.6858505010604858
			],
			"type":"VEC3"
		},
		{
			"bufferView":46,
			"componentType":5126,
			"count":1374,
			"type":"VEC3"
		},
		{
			"bufferView":47,
			"componentType":5126,
			"count":1374,
			"type":"VEC2"
		},
		{
			"bufferView":48,
			"componentType":5123,
			"count":3615,
			"type":"SCALAR"
		},
		{
			"bufferView":49,
			"componentType":5126,
			"count":1633,
			"max":[
				5.315709114074707,
				5.185295581817627,
				6.9705681800842285
			],
			"min":[
				-5.705437183380127,
				-2.1531944274902344,
				-5.8666181564331055
			],
			"type":"VEC3"
		},
		{
			"bufferView":50,
			"componentType":5126,
			"count":1633,
			"type":"VEC3"
		},
		{
			"bufferView":51,
			"componentType":5126,
			"count":1633,
			"type":"VEC2"
		},
		{
			"bufferView":52,
			"componentType":5123,
			"count":4026,
			"type":"SCALAR"
		},
		{
			"bufferView":53,
			"componentType":5126,
			"count":22692,
			"max":[
				10.706589698791504,
				24.740068435668945,
				28.892440795898438
			],
			"min":[
				-10.470525741577148,
				3.4966788291931152,
				-26.276565551757812
			],
			"type":"VEC3"
		},
		{
			"bufferView":54,
			"componentType":5126,
			"count":22692,
			"type":"VEC3"
		},
		{
			"bufferView":55,
			"componentType":5126,
			"count":22692,
			"type":"VEC2"
		},
		{
			"bufferView":56,
			"componentType":5123,
			"count":65721,
			"type":"SCALAR"
		},
		{
			"bufferView":57,
			"componentType":5126,
			"count":80,
			"max":[
				8.694920539855957,
				16.04340171813965,
				21.0665225982666
			],
			"min":[
				-8.535526275634766,
				11.019683837890625,
				18.1713809967041
			],
			"type":"VEC3"
		},
		{
			"bufferView":58,
			"componentType":5126,
			"count":80,
			"type":"VEC3"
		},
		{
			"bufferView":59,
			"componentType":5126,
			"count":80,
			"type":"VEC2"
		},
		{
			"bufferView":60,
			"componentType":5123,
			"count":210,
			"type":"SCALAR"
		},
		{
			"bufferView":61,
			"componentType":5126,
			"count":4393,
			"max":[
				10.185620307922363,
				14.416489601135254,
				28.31787872314453
			],
			"min":[
				-10.025516510009766,
				3.820733070373535,
				-25.717315673828125
			],
			"type":"VEC3"
		},
		{
			"bufferView":62,
			"componentType":5126,
			"count":4393,
			"type":"VEC3"
		},
		{
			"bufferView":63,
			"componentType":5126,
			"count":4393,
			"type":"VEC2"
		},
		{
			"bufferView":64,
			"componentType":5123,
			"count":10281,
			"type":"SCALAR"
		},
		{
			"bufferView":65,
			"componentType":5126,
			"count":8390,
			"max":[
				9.0291166305542,
				14.384308815002441,
				24.757232666015625
			],
			"min":[
				-8.884328842163086,
				4.6444525718688965,
				-13.979490280151367
			],
			"type":"VEC3"
		},
		{
			"bufferView":66,
			"componentType":5126,
			"count":8390,
			"type":"VEC3"
		},
		{
			"bufferView":67,
			"componentType":5126,
			"count":8390,
			"type":"VEC2"
		},
		{
			"bufferView":68,
			"componentType":5123,
			"count":24180,
			"type":"SCALAR"
		}
	],
	"bufferViews":[
		{
			"buffer":0,
			"byteLength":26820,
			"byteOffset":0,
			"target":34962
		},
		{
			"buffer":0,
			"byteLength":26820,
			"byteOffset":26820,
			"target":34962
		},
		{
			"buffer":0,
			"byteLength":17880,
			"byteOffset":53640,
			"target":34962
		},
		{
			"buffer":0,
			"byteLength":12852,
			"byteOffset":71520,
			"target":34963
		},
		{
			"buffer":0,
			"byteLength":3264,
			"byteOffset":84372,
			"target":34962
		},
		{
			"buffer":0,
			"byteLength":3264,
			"byteOffset":87636,
			"target":34962
		},
		{
			"buffer":0,
			"byteLength":2176,
			"byteOffset":90900,
			"target":34962
		},
		{
			"buffer":0,
			"byteLength":1620,
			"byteOffset":93076,
			"target":34963
		},
		{
			"buffer":0,
			"byteLength":26820,
			"byteOffset":94696,
			"target":34962
		},
		{
			"buffer":0,
			"byteLength":26820,
			"byteOffset":121516,
			"target":34962
		},
		{
			"buffer":0,
			"byteLength":17880,
			"byteOffset":148336,
			"target":34962
		},
		{
			"buffer":0,
			"byteLength":3264,
			"byteOffset":166216,
			"target":34962
		},
		{
			"buffer":0,
			"byteLength":3264,
			"byteOffset":169480,
			"target":34962
		},
		{
			"buffer":0,
			"byteLength":2176,
			"byteOffset":172744,
			"target":34962
		},
		{
			"buffer":0,
			"byteLength":26820,
			"byteOffset":174920,
			"target":34962
		},
		{
			"buffer":0,
			"byteLength":26820,
			"byteOffset":201740,
			"target":34962
		},
		{
			"buffer":0,
			"byteLength":17880,
			"byteOffset":228560,
			"target":34962
		},
		{
			"buffer":0,
			"byteLength":12852,
			"byteOffset":246440,
			"target":34963
		},
		{
			"buffer":0,
			"byteLength":3264,
			"byteOffset":259292,
			"target":34962
		},
		{
			"buffer":0,
			"byteLength":3264,
			"byteOffset":262556,
			"target":34962
		},
		{
			"buffer":0,
			"byteLength":2176,
			"byteOffset":265820,
			"target":34962
		},
		{
			"buffer":0,
			"byteLength":1620,
			"byteOffset":267996,
			"target":34963
		},
		{
			"buffer":0,
			"byteLength":26820,
			"byteOffset":269616,
			"target":34962
		},
		{
			"buffer":0,
			"byteLength":26820,
			"byteOffset":296436,
			"target":34962
		},
		{
			"buffer":0,
			"byteLength":17880,
			"byteOffset":323256,
			"target":34962
		},
		{
			"buffer":0,
			"byteLength":12852,
			"byteOffset":341136,
			"target":34963
		},
		{
			"buffer":0,
			"byteLength":3264,
			"byteOffset":353988,
			"target":34962
		},
		{
			"buffer":0,
			"byteLength":3264,
			"byteOffset":357252,
			"target":34962
		},
		{
			"buffer":0,
			"byteLength":2176,
			"byteOffset":360516,
			"target":34962
		},
		{
			"buffer":0,
			"byteLength":53448,
			"byteOffset":362692,
			"target":34962
		},
		{
			"buffer":0,
			"byteLength":53448,
			"byteOffset":416140,
			"target":34962
		},
		{
			"buffer":0,
			"byteLength":35632,
			"byteOffset":469588,
			"target":34962
		},
		{
			"buffer":0,
			"byteLength":25608,
			"byteOffset":505220,
			"target":34963
		},
		{
			"buffer":0,
			"byteLength":6528,
			"byteOffset":530828,
			"target":34962
		},
		{
			"buffer":0,
			"byteLength":6528,
			"byteOffset":537356,
			"target":34962
		},
		{
			"buffer":0,
			"byteLength":4352,
			"byteOffset":543884,
			"target":34962
		},
		{
			"buffer":0,
			"byteLength":3240,
			"byteOffset":548236,
			"target":34963
		},
		{
			"buffer":0,
			"byteLength":53640,
			"byteOffset":551476,
			"target":34962
		},
		{
			"buffer":0,
			"byteLength":53640,
			"byteOffset":605116,
			"target":34962
		},
		{
			"buffer":0,
			"byteLength":35760,
			"byteOffset":658756,
			"target":34962
		},
		{
			"buffer":0,
			"byteLength":25704,
			"byteOffset":694516,
			"target":34963
		},
		{
			"buffer":0,
			"byteLength":6528,
			"byteOffset":720220,
			"target":34962
		},
		{
			"buffer":0,
			"byteLength":6528,
			"byteOffset":726748,
			"target":34962
		},
		{
			"buffer":0,
			"byteLength":4352,
			"byteOffset":733276,
			"target":34962
		},
		{
			"buffer":0,
			"byteLength":3240,
			"byteOffset":737628,
			"target":34963
		},
		{
			"buffer":0,
			"byteLength":16488,
			"byteOffset":740868,
			"target":34962
		},
		{
			"buffer":0,
			"byteLength":16488,
			"byteOffset":757356,
			"target":34962
		},
		{
			"buffer":0,
			"byteLength":10992,
			"byteOffset":773844,
			"target":34962
		},
		{
			"buffer":0,
			"byteLength":7230,
			"byteOffset":784836,
			"target":34963
		},
		{
			"buffer":0,
			"byteLength":19596,
			"byteOffset":792068,
			"target":34962
		},
		{
			"buffer":0,
			"byteLength":19596,
			"byteOffset":811664,
			"target":34962
		},
		{
			"buffer":0,
			"byteLength":13064,
			"byteOffset":831260,
			"target":34962
		},
		{
			"buffer":0,
			"byteLength":8052,
			"byteOffset":844324,
			"target":34963
		},
		{
			"buffer":0,
			"byteLength":272304,
			"byteOffset":852376,
			"target":34962
		},
		{
			"buffer":0,
			"byteLength":272304,
			"byteOffset":1124680,
			"target":34962
		},
		{
			"buffer":0,
			"byteLength":181536,
			"byteOffset":1396984,
			"target":34962
		},
		{
			"buffer":0,
			"byteLength":131442,
			"byteOffset":1578520,
			"target":34963
		},
		{
			"buffer":0,
			"byteLength":960,
			"byteOffset":1709964,
			"target":34962
		},
		{
			"buffer":0,
			"byteLength":960,
			"byteOffset":1710924,
			"target":34962
		},
		{
			"buffer":0,
			"byteLength":640,
			"byteOffset":1711884,
			"target":34962
		},
		{
			"buffer":0,
			"byteLength":420,
			"byteOffset":1712524,
			"target":34963
		},
		{
			"buffer":0,
			"byteLength":52716,
			"byteOffset":1712944,
			"target":34962
		},
		{
			"buffer":0,
			"byteLength":52716,
			"byteOffset":1765660,
			"target":34962
		},
		{
			"buffer":0,
			"byteLength":35144,
			"byteOffset":1818376,
			"target":34962
		},
		{
			"buffer":0,
			"byteLength":20562,
			"byteOffset":1853520,
			"target":34963
		},
		{
			"buffer":0,
			"byteLength":100680,
			"byteOffset":1874084,
			"target":34962
		},
		{
			"buffer":0,
			"byteLength":100680,
			"byteOffset":1974764,
			"target":34962
		},
		{
			"buffer":0,
			"byteLength":67120,
			"byteOffset":2075444,
			"target":34962
		},
		{
			"buffer":0,
			"byteLength":48360,
			"byteOffset":2142564,
			"target":34963
		}
	],
	"samplers":[
		{
			"magFilter":9729,
			"minFilter":9987
		}
	],
	"buffers":[
		{
			"byteLength":2190924,
			"uri":"btr88.bin"
		}
	]
}
